<svg id="トレス" xmlns="http://www.w3.org/2000/svg" viewBox="0 0 120.98 231.53"><defs><style>.cls-1{fill:none;stroke:lime;stroke-miterlimit:10;}</style></defs><title>guernica</title><path class="cls-1" d="M1086.79,645.33c-7.08,7.43-16.53,39.75,11.8,40.83,1.09,14.52,9.85,16.3,9.85,16.3-9.44,21.06-12,30.88-12,30.88s-4.73,9.09,14.51,9.45,11.67,8.56-6.18,6.54c-13.08,3.64.41,13.27,14.36,7.46,8.25-3.43,33.92,4.41,53.89,38.18,11.46,19.38,21.36,43.86,8,76.86l18.3,3.14s-8.39-82.34-10.67-85.45c-1.37-1.87,9.48-31.81,9.23-60.42-0.23-27.16-10.16-53.13-61.11-52.81,0,0,6.85-24.63-12.76-31,0,0,11.26,17.25,2.18,26.33-8.35-1.45-19.61,0-24,2.91C1092.06,678.89,1086.25,668,1086.79,645.33Z" transform="translate(-1078.9 -644.05)"/><path class="cls-1" d="M1110.95,742.8s1.66,6.53-4.46,6.71" transform="translate(-1078.9 -644.05)"/><path class="cls-1" d="M1162.42,700c-1.24-.93,3.73-17.79-0.92-38.91,0,0-14.6,16.16-17.09,35.73l20.82,2.8" transform="translate(-1078.9 -644.05)"/><polygon class="cls-1" points="70.66 50.38 80.6 52.41 80.6 26.29 70.66 50.38"/><path class="cls-1" d="M1104.83,717.39c0.57,7.6,1.66,22.67,15.64,6.46,8.09-9.38,11.19,9.9,3.59,14.2" transform="translate(-1078.9 -644.05)"/><path class="cls-1" d="M1122.19,724.56c3.72,0.08,3.92,10.33-5.57,12.77C1119.75,731,1115.88,724.42,1122.19,724.56Z" transform="translate(-1078.9 -644.05)"/><path class="cls-1" d="M1104,737.33c6.17-1-1.41-15.78,1.16-16.5C1099.46,724.25,1097.42,738.39,1104,737.33Z" transform="translate(-1078.9 -644.05)"/><path class="cls-1" d="M1122.54,674.51c-3.87,2-2.43,14.92,2.87,12.38a25.27,25.27,0,0,0,11.35-10.59" transform="translate(-1078.9 -644.05)"/><path class="cls-1" d="M1100.1,675c0.77,0,.62,10.53-1.51,11.14" transform="translate(-1078.9 -644.05)"/><path class="cls-1" d="M1128.56,703.75c-2.66-4.28-13.48-10.08-20.12-1.29" transform="translate(-1078.9 -644.05)"/><path class="cls-1" d="M1142.8,709.17c1.56-2.4,11.37-9.6,21.28,2.09" transform="translate(-1078.9 -644.05)"/><path class="cls-1" d="M1144.88,711.26c0.73-4.09,10-7.3,17.94,1.15C1155.84,719,1147.49,716.29,1144.88,711.26Z" transform="translate(-1078.9 -644.05)"/><path class="cls-1" d="M1126.32,704.77c-1.59-2.57-8.24-7-14.29-1C1115.78,710,1123.81,708.41,1126.32,704.77Z" transform="translate(-1078.9 -644.05)"/><circle class="cls-1" cx="39.61" cy="60.45" r="2.89"/><circle class="cls-1" cx="74.49" cy="67.52" r="3.72"/><line class="cls-1" x1="74.6" y1="64.29" x2="74.6" y2="71.29"/><line class="cls-1" x1="39.6" y1="57.29" x2="39.6" y2="63.29"/><path class="cls-1" d="M1112.8,713.45c1.84,0.14,12.05-1,18.44,4.54" transform="translate(-1078.9 -644.05)"/><path class="cls-1" d="M1108.44,716.3c1.84,0.14,17.55-1,21.38,5.24" transform="translate(-1078.9 -644.05)"/><path class="cls-1" d="M1109.8,718.45c1.84,0.14,12.05-1,18.44,4.54" transform="translate(-1078.9 -644.05)"/><path class="cls-1" d="M1144.88,734a20.43,20.43,0,0,1-12.37,11.49" transform="translate(-1078.9 -644.05)"/><path class="cls-1" d="M1153.39,734.58c-3.14,6.1-12.22,14.18-18,16.74" transform="translate(-1078.9 -644.05)"/><path class="cls-1" d="M1164.08,722.25c1.14,10.49-10.43,23.26-14.52,26.24" transform="translate(-1078.9 -644.05)"/><path class="cls-1" d="M1186.28,732.17c2,0.58,8.28,4.33,9,5.22" transform="translate(-1078.9 -644.05)"/><path class="cls-1" d="M1191.95,723.59c0.58,0.58,4.51,8,4.51,8" transform="translate(-1078.9 -644.05)"/><line class="cls-1" x1="105.8" y1="98.75" x2="115.3" y2="103.04"/></svg>